# xmcd
#
# Track frame offsets: 
#        150
#        17875
#        28787
#        40612
#        51350
#        63000
#        75300
#        94437
#        106325
#        117687
#        127000
#        139025
#        149925
#        166537
#        178775
#        191875
#        204875
#        216000
#
# Disc length: 3048 seconds
#
# Revision: 0
# Processed by: cddbd v1.5.2PL0 Copyright (c) Steve Scherf et al.
# Submitted via: ExactAudioCopyFreeDBPlugin 1.0
#
DISCID=070be612
DTITLE=Various Artist - Old Style Love Songs (I)
DYEAR=1900
DGENRE=Other
TTITLE0=In The Morning
TTITLE1=Summer Kisses Winter Tears
TTITLE2=Put Your Hand On My Shoulder
TTITLE3=To Know You Is To Love You
TTITLE4=Rhythm Of Rain
TTITLE5=Sealed With A Kiss
TTITLE6=I Can't Stop Loving You
TTITLE7=Let It Be Me
TTITLE8=Summer Time
TTITLE9=The Birds And The Bees
TTITLE10=As Tears Go By
TTITLE11=Red River Vally
TTITLE12=(Theme From) Valley Of The Dolls
TTITLE13=High Noon
TTITLE14=The Hanging Tree
TTITLE15=North To Alaska
TTITLE16=Crazy Love
TTITLE17=Today
EXTD=
EXTT0=
EXTT1=
EXTT2=
EXTT3=
EXTT4=
EXTT5=
EXTT6=
EXTT7=
EXTT8=
EXTT9=
EXTT10=
EXTT11=
EXTT12=
EXTT13=
EXTT14=
EXTT15=
EXTT16=
EXTT17=
PLAYORDER=
